<svg xmlns="http://www.w3.org/2000/svg" width="1184" height="1184" viewBox="0 0 1184 1184" version="1.1"><path d="M 655.177 246.040 C 654.064 247.235, 652.760 247.970, 652.279 247.672 C 651.798 247.375, 650.751 247.595, 649.952 248.160 C 648.823 248.960, 648.943 249.043, 650.496 248.531 C 651.594 248.170, 648.414 252.065, 643.431 257.187 C 618.072 283.250, 602.811 310.551, 595.900 342.215 C 593.700 352.297, 593.975 355.036, 596.363 346.824 C 598.380 339.889, 606.565 323.363, 612.371 314.500 C 617.444 306.757, 617.977 306.554, 615 313.499 C 609.990 325.188, 606 348.567, 606 366.235 L 606 377.714 595.750 378.390 C 537.821 382.211, 480.558 402.855, 420.215 441.671 C 411.522 447.263, 410.405 447.794, 411.633 445.750 C 412.143 444.901, 411.842 444.940, 410.692 445.872 C 408.709 447.481, 408.459 448.392, 410.250 447.485 C 410.938 447.137, 410.600 447.545, 409.500 448.392 C 408.400 449.239, 406.938 450.415, 406.250 451.005 C 405.563 451.596, 405 451.730, 405 451.303 C 405 450.024, 377.496 477.739, 368.086 488.500 C 321.955 541.251, 293.666 602.748, 284.824 669.500 C 282.776 684.966, 283.055 728.469, 285.300 743.762 C 290.012 775.852, 297.320 802.109, 309.136 829.407 C 314.622 842.083, 327.880 868.022, 330.105 870.433 C 331.032 871.438, 330.912 871.020, 325.503 854.500 C 319.293 835.532, 314.903 817.003, 311.288 794.500 C 308.721 778.517, 308.712 724.163, 311.274 709 C 318.370 667.010, 329.844 635.327, 350.317 601.192 C 371.568 565.760, 409.520 526.250, 446.500 501.062 C 488.683 472.329, 538.575 450.674, 588.414 439.464 C 605.770 435.561, 605.200 435.788, 600 434.854 C 597.525 434.410, 586.692 433.745, 575.927 433.377 C 547.631 432.410, 528.493 435.203, 513.383 442.505 L 506.500 445.831 511.604 441.114 C 537.230 417.429, 575.201 398.739, 616.284 389.586 C 648.570 382.394, 671.813 380.474, 756.639 377.991 C 793.125 376.923, 811.124 375.399, 829 371.861 C 861.268 365.476, 884.042 352.066, 898.769 330.780 C 900.945 327.634, 903.037 325.370, 903.416 325.749 C 903.795 326.129, 903.809 325.665, 903.446 324.720 C 903.054 323.699, 903.260 323, 903.952 323 C 904.593 323, 904.840 322.550, 904.500 322 C 904.160 321.450, 904.385 321, 905 321 C 905.615 321, 905.859 320.581, 905.543 320.069 C 905.226 319.557, 905.425 318.856, 905.984 318.510 C 907.157 317.785, 907.368 315, 906.250 315 C 905.837 315, 903.597 316.739, 901.272 318.864 C 891 328.253, 866.920 342.067, 849.728 348.431 C 810.071 363.113, 773.668 361.452, 741.562 343.497 C 732.424 338.387, 732.670 337.749, 742.288 341.610 C 757.018 347.523, 768.208 350.027, 782 350.496 C 792.299 350.846, 793.443 350.755, 788.500 349.982 C 761.767 345.802, 743.567 339.285, 728.500 328.499 C 722.454 324.171, 716.887 318.904, 716.708 317.343 C 716.655 316.880, 716.228 316.050, 715.759 315.500 C 710.882 309.785, 706.908 302.957, 704.913 296.866 C 701.756 287.228, 701.691 271.343, 704.763 260 C 705.880 255.875, 706.628 252.325, 706.425 252.111 C 705.608 251.251, 694.400 258.857, 688.363 264.369 C 680.131 271.883, 673.990 279.897, 668.522 290.257 C 664.024 298.780, 658 314.709, 658 318.080 C 658 321.596, 656.180 320.061, 654.645 315.250 C 648.956 297.421, 649.403 274.380, 655.883 251.514 C 656.971 247.672, 657.713 244.380, 657.532 244.198 C 657.350 244.016, 656.290 244.845, 655.177 246.040 M 639.750 420.737 C 642.638 420.939, 647.362 420.939, 650.250 420.737 C 653.138 420.535, 650.775 420.370, 645 420.370 C 639.225 420.370, 636.862 420.535, 639.750 420.737 M 658.500 576.180 C 651.122 578.628, 633.989 583.151, 585 595.584 C 554.842 603.237, 522.328 616.452, 501.535 629.506 C 492.787 634.998, 477.418 646.422, 470.500 652.574 C 466.782 655.881, 467.029 655.798, 474 651.394 C 506.271 631.006, 540.639 615.765, 576.500 605.938 C 590.129 602.204, 617.715 596.704, 619.466 597.372 C 620.750 597.863, 620.245 598.032, 605.500 602.058 C 562.951 613.675, 521.954 632.027, 490.213 653.666 C 447.362 682.879, 413.696 723.277, 395.632 767.160 C 379.414 806.556, 371.761 853.781, 374.913 895 C 376.610 917.187, 377.453 924.795, 378.311 925.642 C 378.415 925.744, 378.565 916.530, 378.645 905.164 C 378.843 877.147, 381.783 853.056, 388.125 827.500 C 412.306 730.051, 475.967 664.075, 572.913 635.990 C 580.489 633.796, 587.320 632.004, 588.094 632.009 C 588.867 632.014, 584.550 634.416, 578.500 637.345 C 543.295 654.394, 503.707 686.110, 474.019 721.050 C 469.938 725.853, 471.858 724.309, 481.543 715 C 522.484 675.647, 559.380 653.677, 633.500 624.516 C 642.850 620.837, 657.804 614.683, 666.730 610.840 C 683.009 603.832, 687.975 602.830, 686.558 606.840 C 685.555 609.681, 696.437 597.032, 706.374 583.808 L 709.148 580.117 705.324 579.184 C 698.776 577.588, 670.328 572.895, 668.418 573.097 C 667.913 573.150, 663.450 574.538, 658.500 576.180 M 728 690.064 C 722.524 694.774, 712.643 701.417, 713.396 699.883 C 713.769 699.122, 713.495 699.348, 712.787 700.383 C 712.079 701.419, 709.832 704.532, 707.793 707.299 L 704.086 712.332 706.293 713.483 C 707.507 714.116, 712.465 716.763, 717.312 719.365 C 723.580 722.730, 726.755 723.905, 728.312 723.437 C 731.450 722.493, 748.743 710.783, 753.682 706.258 L 757.864 702.426 753.118 700.248 C 750.507 699.051, 744.628 695.580, 740.053 692.536 C 735.479 689.491, 731.682 687.012, 731.618 687.027 C 731.553 687.042, 729.925 688.408, 728 690.064" stroke="none" fill="#ef7712" fill-rule="evenodd"/><path d="M 743.343 415.765 C 742.707 416.169, 746.307 416.372, 751.343 416.216 C 765.135 415.789, 766.781 415.316, 755 415.165 C 749.225 415.091, 743.979 415.361, 743.343 415.765 M 583.114 567.373 C 521.548 596.461, 480.261 623.774, 447.366 657.178 C 432.697 672.074, 430.400 674.699, 420.832 687.500 C 402.567 711.938, 388.699 739.339, 380.595 767 C 375.508 784.367, 371 808.973, 371 819.378 L 371 825.168 374.902 822.078 C 378.051 819.584, 379.023 817.976, 379.942 813.744 C 393.314 752.168, 427.677 699.304, 479.500 660.586 C 512.503 635.929, 556.537 614.829, 600.777 602.474 C 604.230 601.510, 606.864 600.531, 606.632 600.299 C 605.501 599.168, 574.738 606.812, 557.665 612.467 C 528.081 622.265, 496.051 637.557, 473.384 652.706 C 461.264 660.805, 460.560 661.024, 467.500 654.539 C 482.221 640.782, 503.282 626.619, 523.500 616.880 C 545.928 606.076, 565.638 599.594, 611 588.105 C 638.131 581.233, 645.683 579.226, 655.500 576.276 C 658.250 575.449, 662.525 574.180, 665 573.454 C 668.208 572.514, 668.782 572.113, 667 572.057 C 665.625 572.014, 658.200 571.305, 650.500 570.482 C 636.230 568.956, 592.535 565.911, 588 566.127 C 586.625 566.192, 584.426 566.753, 583.114 567.373 M 774.080 579.699 C 773.517 581.790, 772.373 585.750, 771.539 588.500 C 769.787 594.273, 769.685 595.046, 770.934 593.073 C 771.688 591.881, 772.632 592.071, 776.668 594.232 C 779.326 595.654, 783.842 598.046, 786.704 599.549 C 789.566 601.051, 792.101 603.005, 792.338 603.890 C 793.042 606.526, 793.054 593.674, 792.352 588.551 C 791.944 585.573, 791.111 583.601, 790.102 583.222 C 789.221 582.892, 786.431 581.409, 783.902 579.926 C 776.100 575.353, 775.257 575.334, 774.080 579.699 M 426.978 587.750 L 418.500 596.500 427.250 588.022 C 435.377 580.148, 436.456 579, 435.728 579 C 435.578 579, 431.641 582.938, 426.978 587.750 M 752.770 602.004 C 750.854 605.856, 749.896 608.501, 750.643 607.881 C 751.654 607.043, 752.371 607.063, 753.454 607.962 C 756.204 610.244, 762.409 612.991, 763.129 612.246 C 764.330 611.005, 770.116 595.783, 769.589 595.255 C 769.318 594.985, 768.799 595.952, 768.435 597.404 L 767.772 600.044 763.260 597.522 C 760.779 596.135, 758.187 595, 757.502 595 C 756.816 595, 754.687 598.152, 752.770 602.004 M 639.500 646.140 C 635.100 648.774, 630.938 650.944, 630.250 650.964 C 627.812 651.034, 629.052 652.719, 632.750 654.362 C 637.402 656.429, 644.509 658.340, 657.699 661.072 L 667.898 663.185 671.968 660.898 C 677.341 657.878, 677.849 658.323, 655.500 646.453 C 651.650 644.409, 648.275 642.424, 648 642.044 C 647.725 641.664, 643.900 643.507, 639.500 646.140 M 695.473 658.250 L 688.500 665.500 695.750 658.527 C 702.484 652.050, 703.457 651, 702.723 651 C 702.571 651, 699.308 654.263, 695.473 658.250" stroke="none" fill="#d1bb99" fill-rule="evenodd"/><path d="M 747.433 644.750 C 744.825 648.462, 740.462 654.108, 737.737 657.296 C 733.469 662.289, 733.115 663.009, 735.185 662.490 C 736.907 662.057, 738.141 662.504, 739.544 664.068 L 741.500 666.249 732.854 674.374 C 728.098 678.844, 723.422 684.075, 722.463 686 C 721.504 687.925, 719.389 691.444, 717.763 693.820 C 716.137 696.196, 714.989 698.323, 715.212 698.545 C 716.565 699.898, 738.120 680.254, 744.817 671.565 L 747.078 668.631 753.462 671.965 C 756.974 673.799, 762.693 676.788, 766.173 678.608 C 771.098 681.184, 772.761 681.649, 773.676 680.708 C 775.207 679.135, 781.704 666.089, 783.520 660.942 L 784.935 656.933 779.666 653.563 C 776.769 651.710, 772.846 649.504, 770.949 648.663 C 769.052 647.821, 766.084 646.188, 764.354 645.034 L 761.208 642.936 757.093 650.565 C 752.014 659.982, 747.144 667.376, 742.808 672.255 C 739.773 675.669, 739.342 675.855, 737.586 674.508 C 735.753 673.102, 735.883 672.817, 740.655 667.770 C 748.600 659.367, 760.280 642.540, 758.820 641.600 C 755.513 639.473, 752.978 638, 752.623 638 C 752.377 638, 750.042 641.038, 747.433 644.750 M 680.780 656.278 C 675.434 659.700, 671.047 662.837, 671.030 663.250 C 671.014 663.663, 672.913 664.027, 675.250 664.060 C 677.587 664.092, 681.642 664.472, 684.260 664.903 C 686.877 665.333, 688.778 665.444, 688.483 665.149 C 688.187 664.854, 690.491 662.041, 693.601 658.898 L 699.256 653.184 696.178 651.592 C 694.485 650.716, 692.514 650.013, 691.800 650.028 C 691.085 650.044, 686.126 652.857, 680.780 656.278 M 708.956 662.546 L 706.651 665 712.826 665 C 716.222 665, 719 664.784, 719 664.520 C 719 664.257, 717.259 663.152, 715.131 662.067 L 711.261 660.093 708.956 662.546" stroke="none" fill="#f28c5d" fill-rule="evenodd"/><path d="M 414.469 570.250 L 408.500 576.500 414.750 570.531 C 420.556 564.987, 421.458 564, 420.719 564 C 420.564 564, 417.751 566.813, 414.469 570.250 M 767.542 602.019 C 765.455 607.529, 763.421 612.240, 763.022 612.487 C 762.220 612.982, 755.817 609.923, 753.324 607.854 C 751.453 606.301, 752.172 605.438, 741.132 622.500 C 732.189 636.320, 726.181 643.879, 714.109 656.500 C 709.374 661.449, 706.811 664.290, 708.414 662.813 L 711.328 660.127 715.032 662.016 C 718.067 663.565, 720.031 663.797, 725.914 663.304 C 732.913 662.717, 733.193 662.587, 737.148 658.101 C 739.379 655.570, 743.664 650.013, 746.671 645.750 C 749.678 641.487, 752.348 638, 752.604 638 C 752.975 638, 755.474 639.448, 758.820 641.600 C 760.280 642.540, 748.600 659.367, 740.655 667.770 C 735.883 672.817, 735.753 673.102, 737.586 674.508 C 739.342 675.855, 739.773 675.669, 742.808 672.255 C 747.144 667.376, 752.014 659.982, 757.093 650.565 L 761.208 642.936 764.354 645.034 C 766.084 646.188, 769.052 647.821, 770.949 648.663 C 772.846 649.504, 776.719 651.678, 779.556 653.492 L 784.713 656.792 786.787 649.646 C 787.928 645.716, 789.373 640.025, 789.998 637 C 791.452 629.966, 793.121 607.329, 792.397 604.447 C 792.057 603.093, 789.860 601.211, 786.673 599.544 C 783.828 598.057, 779.517 595.751, 777.093 594.420 C 774.669 593.089, 772.382 592, 772.011 592 C 771.640 592, 769.629 596.509, 767.542 602.019 M 730.923 606.164 C 725.488 616.406, 705.919 637.215, 691.826 647.739 C 682.807 654.474, 680.027 657.093, 686.732 652.536 C 691.106 649.564, 692.070 649.468, 696.178 651.592 L 699.256 653.184 693.447 659.054 C 687.120 665.448, 687.307 666.493, 694.645 665.735 C 698.204 665.367, 698.125 665.323, 693.616 665.168 L 688.731 665 699.616 653.721 C 705.602 647.518, 713.516 638.181, 717.203 632.971 C 723.863 623.559, 733.708 605.375, 732.693 604.360 C 732.401 604.068, 731.604 604.880, 730.923 606.164 M 681.473 613.250 L 674.500 620.500 681.750 613.527 C 688.484 607.050, 689.457 606, 688.723 606 C 688.571 606, 685.308 609.263, 681.473 613.250 M 627.007 651.995 C 625.507 652.923, 627.077 653.815, 633 655.403 C 635.185 655.989, 635.122 655.861, 632.500 654.391 C 630.850 653.466, 629.263 652.348, 628.974 651.907 C 628.684 651.466, 627.799 651.506, 627.007 651.995 M 675 659.032 C 671.425 661.211, 668.891 662.995, 669.369 662.997 C 670.399 663.001, 682 656.048, 682 655.428 C 682 654.772, 681.931 654.808, 675 659.032 M 375.010 821.992 C 373.098 823.552, 371.188 824.616, 370.767 824.356 C 368.692 823.074, 370.768 888.168, 372.869 890.269 C 373.467 890.867, 373.728 889.052, 373.577 885.359 C 373.131 874.460, 375.092 844.572, 377.072 832.104 C 378.155 825.286, 378.916 819.583, 378.764 819.431 C 378.612 819.278, 376.923 820.431, 375.010 821.992" stroke="none" fill="#f3966c" fill-rule="evenodd"/><path d="M 640.250 419.735 C 642.862 419.941, 647.138 419.941, 649.750 419.735 C 652.362 419.529, 650.225 419.360, 645 419.360 C 639.775 419.360, 637.638 419.529, 640.250 419.735 M 776.603 503 C 774.325 525.851, 770.283 551.050, 768.631 552.702 C 768.417 552.916, 766.050 551.828, 763.371 550.285 C 753.009 544.316, 753.142 544.352, 751.274 547.020 C 746.154 554.330, 733.813 567.875, 726.684 574.012 C 717.560 581.864, 700.271 594.113, 701.413 591.915 C 701.817 591.137, 701.104 591.850, 699.827 593.500 C 688.147 608.595, 668.391 627.420, 653.740 637.416 C 650.583 639.570, 648 641.605, 648 641.937 C 648 642.270, 651.263 644.251, 655.250 646.339 C 663.249 650.528, 663.233 650.519, 670.868 654.986 L 676.236 658.127 681.868 654.417 C 699.248 642.971, 716.681 626.328, 727.750 610.616 C 731.188 605.737, 734 602.073, 734 602.475 C 734 602.877, 732.231 606.980, 730.070 611.593 C 722.882 626.931, 711.836 642.114, 696.126 658.250 L 689.554 665 697.339 665 L 705.125 665 714.817 655.233 C 729.703 640.233, 744.889 618.793, 753.456 600.685 C 754.935 597.558, 756.731 595, 757.447 595 C 758.162 595, 760.749 596.118, 763.194 597.485 L 767.641 599.970 769.780 593.735 C 770.956 590.306, 772.649 584.894, 773.542 581.709 C 775.385 575.135, 775.650 575.090, 783.902 579.926 C 792.280 584.837, 792.081 584.921, 791.475 576.720 C 789.886 555.240, 785.684 530.091, 779.157 503 L 777.350 495.500 776.603 503 M 324.395 787.500 C 324.396 795.200, 324.553 798.218, 324.743 794.206 C 324.934 790.195, 324.932 783.895, 324.741 780.206 C 324.549 776.518, 324.393 779.800, 324.395 787.500" stroke="none" fill="#f9cebb" fill-rule="evenodd"/><path d="M 652.564 246.896 C 652.259 247.389, 650.182 248.746, 647.948 249.910 C 645.714 251.074, 643.350 252.459, 642.693 252.988 C 627.117 265.529, 620.079 272.306, 610.402 284.080 C 593.135 305.090, 578.804 331.525, 565.720 366.500 C 564.600 369.493, 563.504 370.684, 561.362 371.229 C 559.788 371.630, 553.775 373.082, 548 374.456 C 506.685 384.282, 465.339 404.680, 426 434.645 C 404.101 451.325, 402.500 453.113, 419 442.462 C 466.134 412.036, 514.477 391.426, 558.500 382.988 C 570.337 380.720, 581.703 379.317, 595.750 378.390 L 606 377.714 606 366.235 C 606 348.567, 609.990 325.188, 615 313.499 C 617.977 306.554, 617.444 306.757, 612.371 314.500 C 606.565 323.363, 598.380 339.889, 596.363 346.824 C 593.975 355.036, 593.700 352.297, 595.900 342.215 C 603.067 309.379, 621.248 277.936, 647.342 253.250 C 651.557 249.262, 654.581 246, 654.062 246 C 653.543 246, 652.869 246.403, 652.564 246.896 M 719.563 321.102 C 723.992 325.779, 733.553 332.321, 742.500 336.795 C 754.585 342.838, 768.710 346.888, 788.500 349.982 C 793.443 350.755, 792.299 350.846, 782 350.496 C 768.208 350.027, 757.018 347.523, 742.288 341.610 C 732.670 337.749, 732.424 338.387, 741.562 343.497 C 782.320 366.291, 832.432 362.587, 880.971 333.193 C 889.901 327.785, 902.268 318.935, 901.695 318.362 C 901.473 318.140, 898.638 319.263, 895.395 320.859 C 876.193 330.310, 843.905 337.797, 812.829 340.005 C 775.755 342.640, 740.755 335.513, 722.741 321.660 C 716.921 317.183, 715.640 316.959, 719.563 321.102" stroke="none" fill="#f18712" fill-rule="evenodd"/><path d="M 621.971 269.750 L 615.500 276.500 622.250 270.029 C 625.962 266.470, 629 263.432, 629 263.279 C 629 262.543, 627.982 263.480, 621.971 269.750 M 702.343 279.500 C 702.346 283.900, 702.522 285.576, 702.733 283.224 C 702.945 280.872, 702.942 277.272, 702.727 275.224 C 702.512 273.176, 702.339 275.100, 702.343 279.500 M 900.106 328.735 C 892.706 340.798, 878.796 353.118, 864.500 360.267 C 841.171 371.935, 814.647 376.293, 756.639 377.991 C 671.813 380.474, 648.570 382.394, 616.284 389.586 C 575.201 398.739, 537.230 417.429, 511.604 441.114 L 506.500 445.831 513.383 442.505 C 528.493 435.203, 547.631 432.410, 575.927 433.377 C 586.692 433.745, 597.525 434.410, 600 434.854 C 605.200 435.788, 605.770 435.561, 588.414 439.464 C 529.424 452.732, 471.467 480.169, 425.500 516.588 C 408.234 530.268, 380.381 558.872, 367.460 576.192 C 336.686 617.444, 320.135 656.564, 311.274 709 C 308.712 724.163, 308.721 778.517, 311.288 794.500 C 314.903 817.003, 319.293 835.532, 325.503 854.500 C 331.120 871.656, 330.967 871.098, 329.854 870.410 C 329.295 870.064, 330.059 871.743, 331.553 874.141 C 334.995 879.664, 335.453 880.090, 334.629 877 C 334.262 875.625, 333.281 871.125, 332.448 867 C 326.283 836.457, 324.002 814.975, 324.008 787.500 C 324.023 713.969, 345.568 652.810, 391.819 595 C 402.387 581.791, 430.139 554.328, 444.500 542.866 C 491.292 505.522, 542.596 478.043, 602.500 458.240 C 621.945 451.812, 627.901 450.085, 649.500 444.611 C 661.197 441.646, 675.016 439.063, 696 435.918 C 700.125 435.300, 710.025 434.546, 718 434.243 L 732.500 433.691 723 431.347 C 690.301 423.278, 670.862 420.784, 643.749 421.181 C 631.786 421.357, 621.998 421.372, 621.999 421.214 C 622 421.057, 624.138 420.001, 626.750 418.866 C 647.134 410.013, 681.645 403.938, 731 400.513 C 747.375 399.377, 773.604 396.896, 785 395.405 C 847.972 387.166, 881.818 368.286, 900.804 330.806 C 902.715 327.033, 904.104 323.778, 903.889 323.573 C 903.675 323.368, 901.973 325.691, 900.106 328.735 M 386.487 468.250 L 372.500 482.500 386.750 468.513 C 399.988 455.520, 401.453 454, 400.737 454 C 400.592 454, 394.179 460.413, 386.487 468.250 M 670.500 609.157 C 664.450 611.887, 649.825 617.968, 638 622.671 C 603.956 636.210, 586.688 643.721, 569.500 652.465 C 535.938 669.540, 508.665 688.930, 481.543 715 C 471.858 724.309, 469.938 725.853, 474.019 721.050 C 503.707 686.110, 543.295 654.394, 578.500 637.345 C 584.550 634.416, 588.867 632.014, 588.094 632.009 C 585.271 631.991, 558.837 640.097, 547.820 644.360 C 451.005 681.821, 394.138 758.655, 380.446 870.500 C 378.830 883.706, 377.713 926.033, 378.896 929.275 C 379.299 930.381, 380.613 926.612, 382.381 919.275 C 387.565 897.770, 397.605 873.137, 407.651 857.274 C 416.227 843.734, 432.596 825.370, 444.500 815.935 C 469.376 796.219, 502.241 781.572, 545.005 771.142 C 564.023 766.503, 575.874 764.081, 614 757.043 C 662.285 748.129, 687.033 741.999, 707.500 733.883 C 717.364 729.972, 732.564 722.404, 728.312 723.521 C 726.828 723.910, 723.286 722.572, 717.312 719.365 C 712.465 716.763, 707.470 714.097, 706.211 713.440 L 703.922 712.247 706.298 709.373 C 712.661 701.679, 730.635 671.411, 732.425 665.374 C 733.034 663.322, 732.889 663.283, 728.278 664.260 C 721.095 665.783, 680.175 665.712, 669 664.158 C 654.781 662.180, 648.617 660.740, 626.750 654.283 C 623.693 653.381, 624.798 652.313, 633.250 647.999 C 640.679 644.207, 657.744 633.685, 659 632.122 C 659.275 631.780, 661.750 629.716, 664.500 627.535 C 673.459 620.430, 687 607.486, 687 606.027 C 687 605.102, 684.418 603.952, 682.668 604.097 C 682.026 604.150, 676.550 606.427, 670.500 609.157 M 282.378 705 C 282.378 711.325, 282.541 713.913, 282.739 710.750 C 282.937 707.587, 282.937 702.413, 282.739 699.250 C 282.541 696.087, 282.378 698.675, 282.378 705" stroke="none" fill="#ed6213" fill-rule="evenodd"/><path d="M 908.116 317.693 C 907.978 322.694, 902.968 338.114, 898.757 346.500 C 887.975 367.972, 866.724 387.868, 842.742 398.943 C 818.958 409.926, 792.025 415.133, 757.771 415.370 C 747.471 415.442, 739.371 415.559, 739.771 415.632 C 740.172 415.705, 743.200 416.470, 746.500 417.333 C 762.968 421.639, 778.650 424.603, 790.278 425.609 C 794.556 425.978, 798.259 426.610, 798.508 427.013 C 799.059 427.905, 775.429 436.597, 761 440.809 C 755.225 442.495, 739.475 446.824, 726 450.430 C 640.365 473.348, 613.786 481.422, 577 495.692 C 469.738 537.301, 400.927 597.035, 365.260 679.500 C 362.054 686.913, 355 705.725, 355 706.863 C 355 707.137, 358.103 701.092, 361.895 693.431 C 390.558 635.520, 441.716 588.655, 517.834 550.575 C 558.232 530.364, 595.891 515.524, 671.500 490.020 C 724.916 472.002, 736.983 467.821, 756.500 460.565 C 817.635 437.838, 853.937 417.476, 878.044 392.388 C 891.753 378.121, 900.322 363.659, 904.934 347.002 C 907.086 339.231, 909.546 318.605, 908.709 315.355 C 908.447 314.335, 908.180 315.387, 908.116 317.693" stroke="none" fill="#989cc2" fill-rule="evenodd"/><path d="M 903.624 327.030 C 896.945 343.288, 882.306 360.606, 866.640 370.783 C 849.777 381.737, 826.819 389.705, 798.500 394.432 C 782.816 397.050, 765.624 398.796, 723.500 402.048 C 682.597 405.206, 652.887 410.194, 634.035 417.068 C 630.716 418.278, 628 419.320, 628 419.384 C 628 419.448, 635.538 419.538, 644.750 419.585 C 665.584 419.691, 685.231 422.047, 711 427.531 C 720.618 429.578, 732.972 432.885, 734.778 433.896 C 735.550 434.328, 728.603 434.961, 719.341 435.302 C 704.458 435.851, 682.159 438.442, 670.500 440.977 C 668.300 441.455, 662.900 442.619, 658.500 443.564 C 615.334 452.829, 570.986 468.653, 529.175 489.707 C 422.105 543.624, 352.791 624.211, 332.052 718.889 C 326.167 745.758, 325.510 752.653, 325.512 787.500 C 325.514 813.029, 325.879 822.028, 327.317 832 C 329.019 843.802, 332.990 867.299, 333.346 867.672 C 333.437 867.766, 333.345 853.180, 333.143 835.258 C 332.848 809.171, 333.110 799.863, 334.458 788.586 C 337.497 763.162, 342.419 741.263, 349.536 721.500 C 351.517 716, 354.052 708.575, 355.170 705 C 363.203 679.319, 378.754 648.140, 394.571 626 C 439.767 562.738, 506.067 518.580, 608 483.849 C 626.177 477.656, 656.094 468.801, 687 460.466 C 702.675 456.239, 725.335 450.121, 737.355 446.870 C 760.226 440.685, 778.347 435.030, 791 430.131 L 798.500 427.227 792.500 426.560 C 776.996 424.835, 739.924 417.257, 738.108 415.441 C 737.865 415.199, 744.829 414.998, 753.583 414.997 C 834.240 414.979, 886.733 385.456, 904.601 330.060 C 907.920 319.770, 907.343 317.979, 903.624 327.030 M 772.099 497.656 C 764.362 502.292, 749.527 507.835, 705.500 522.538 C 653.456 539.919, 633.826 546.789, 619 552.812 C 599.868 560.584, 588.929 565.541, 590.526 565.716 C 591.612 565.834, 601.232 566.406, 611.904 566.987 C 641.656 568.606, 676.348 572.526, 696.734 576.572 C 703.462 577.907, 709.200 579, 709.484 579 C 710.786 579, 709.698 581.204, 706.196 585.660 C 700.020 593.517, 700.254 593.623, 709.589 587.193 C 725.761 576.054, 741.689 560.704, 751.274 547.020 C 753.142 544.352, 753.009 544.316, 763.371 550.285 C 766.050 551.828, 768.417 552.916, 768.631 552.702 C 769.563 551.771, 773.220 532.628, 774.488 522.053 C 776.257 507.297, 777.339 494.997, 776.867 495.009 C 776.665 495.015, 774.520 496.206, 772.099 497.656" stroke="none" fill="#ffffff" fill-rule="evenodd"/><path d="M 734.566 662.894 C 734.262 663.385, 732.093 667.612, 729.746 672.286 L 725.480 680.785 729.990 676.981 C 732.470 674.889, 736.041 671.573, 737.925 669.611 C 741.272 666.125, 741.308 665.998, 739.520 664.022 C 737.585 661.884, 735.485 661.406, 734.566 662.894 M 746 669.887 C 746 670.375, 741.847 675.212, 736.771 680.637 C 731.695 686.062, 728.489 689.694, 729.647 688.708 C 731.699 686.959, 731.906 687.021, 738.125 691.247 C 746.052 696.632, 752.793 700.526, 755.797 701.455 C 758.372 702.251, 760.682 700.109, 768.665 689.522 C 773.956 682.506, 776.126 678.843, 773.914 680.663 C 772.335 681.961, 771.549 681.641, 756.777 673.693 C 747.986 668.963, 746 668.262, 746 669.887 M 369.378 848 C 369.378 854.325, 369.541 856.913, 369.739 853.750 C 369.937 850.587, 369.937 845.413, 369.739 842.250 C 369.541 839.087, 369.378 841.675, 369.378 848 M 372.530 889.951 C 371.949 890.892, 374.798 911.082, 375.634 911.951 C 376.466 912.814, 374.723 892.492, 373.873 891.408 C 373.403 890.807, 373.313 890.020, 373.675 889.658 C 374.037 889.296, 374.060 889, 373.726 889 C 373.391 889, 372.854 889.428, 372.530 889.951" stroke="none" fill="#e78b50" fill-rule="evenodd"/><path d="M 281.500 42.057 C 232.115 43.767, 199.862 50.949, 166.689 67.625 C 131.005 85.563, 98.249 115.642, 76.880 150.097 C 59.082 178.793, 48.968 209, 44.436 247 C 41.426 272.234, 41.056 309.956, 41.056 592 C 41.056 874.044, 41.426 911.766, 44.436 937 C 51.179 993.532, 71.567 1036.667, 109.450 1074.550 C 147.329 1112.429, 190.347 1132.766, 247 1139.576 C 271.457 1142.516, 314.864 1142.939, 592 1142.939 C 869.136 1142.939, 912.543 1142.516, 937 1139.576 C 993.653 1132.766, 1036.671 1112.429, 1074.550 1074.550 C 1094.048 1055.051, 1106.922 1036.897, 1118.551 1012.500 C 1134.038 980.011, 1139.956 951.870, 1142 901 C 1143.242 870.080, 1143.242 313.920, 1142 283 C 1139.956 232.130, 1134.038 203.989, 1118.551 171.500 C 1106.922 147.103, 1094.048 128.949, 1074.550 109.450 C 1042.191 77.091, 1003.939 56.564, 960 47.978 C 942.751 44.608, 925.966 42.974, 898.500 41.991 C 868.280 40.910, 312.924 40.969, 281.500 42.057 M 650.098 247.745 C 616.339 266.812, 586.655 308.391, 564.774 367.263 C 564.209 368.782, 562.791 370.229, 561.623 370.478 C 498.610 383.901, 440.206 415.839, 390.699 463.947 C 330.563 522.385, 294.265 592.788, 284.362 670.199 C 282.319 686.168, 282.060 721.609, 283.878 736.500 C 288.853 777.264, 299.051 811.053, 317.658 848.430 C 325.001 863.180, 334.926 880.408, 335.658 879.676 C 335.929 879.405, 335.588 873.854, 334.901 867.341 C 332.986 849.206, 333.292 801.454, 335.424 785.500 C 341.887 737.146, 354.986 700.184, 377.729 666.128 C 417.487 606.590, 479.847 562.486, 580.576 522.662 C 605.745 512.711, 629.304 504.253, 671.500 490.020 C 724.916 472.002, 736.983 467.821, 756.500 460.565 C 817.635 437.838, 853.937 417.476, 878.044 392.388 C 891.745 378.131, 900.298 363.699, 904.945 347 C 907.066 339.380, 909.813 315.480, 908.697 314.364 C 908.361 314.028, 904.129 315.795, 899.293 318.291 C 867.401 334.748, 811.408 343.728, 773 338.544 C 745.883 334.884, 730.355 328.458, 717.443 315.553 C 706.680 304.795, 702.997 295.304, 703.064 278.500 C 703.092 271.484, 703.778 265.878, 705.364 259.715 C 707.928 249.749, 708.190 249.932, 699.043 255.299 C 691.503 259.721, 679.190 272.043, 673.517 280.842 C 667.571 290.065, 661.844 302.283, 658.913 312 L 656.651 319.500 655.396 316.500 C 654.707 314.850, 653.372 309.280, 652.430 304.122 C 649.681 289.068, 651.265 269.505, 656.830 249.750 C 657.876 246.037, 658.679 243, 658.616 243 C 658.552 243, 654.719 245.135, 650.098 247.745 M 771.542 497.007 C 764.050 501.399, 744.574 508.783, 713.500 519.011 C 643.311 542.114, 616.189 552.152, 582 567.679 C 479.107 614.407, 415.586 673.077, 386.628 748.133 C 379.475 766.675, 374.800 784.951, 371.315 808 C 368.630 825.751, 368.912 869.170, 371.847 890.304 C 373.821 904.514, 378.480 929.813, 379.268 930.601 C 379.438 930.771, 380.847 925.643, 382.398 919.205 C 387.564 897.770, 397.617 873.117, 407.651 857.274 C 416.227 843.734, 432.596 825.370, 444.500 815.935 C 469.376 796.219, 502.241 781.572, 545.005 771.142 C 564.023 766.503, 575.874 764.081, 614 757.043 C 674.339 745.903, 699.183 738.977, 724.500 726.238 C 761.611 707.564, 782.441 679.205, 790.591 636.262 C 793.130 622.884, 793.646 586.400, 791.557 568 C 788.744 543.228, 779.084 493.877, 777.082 494.050 C 776.762 494.078, 774.269 495.409, 771.542 497.007" stroke="none" fill="#1c2c3b" fill-rule="evenodd"/></svg>